<?xml version="1.0" encoding="UTF-8" standalone="no"?>
<svg width="58px" height="9px" viewBox="0 0 58 9" version="1.1" xmlns="http://www.w3.org/2000/svg" xmlns:xlink="http://www.w3.org/1999/xlink">
    <!-- Generator: Sketch 49.3 (51167) - http://www.bohemiancoding.com/sketch -->
    <title>Group 3 Copy 2</title>
    <desc>Created with Sketch.</desc>
    <defs></defs>
    <g id="Page-1" stroke="none" stroke-width="1" fill="none" fill-rule="evenodd">
        <g id="Lista" transform="translate(-68.000000, -385.000000)" stroke="#B69F58" stroke-width="0.5">
            <g id="Group-3-Copy-2" transform="translate(68.000000, 385.000000)">
                <polygon id="Star-2" fill="#B69F58" points="4.1500648 6.54545455 1.5851837 7.89389234 2.0750324 5.03785526 4.146683e-14 3.01519857 2.86762425 2.59850838 4.1500648 0 5.43250535 2.59850838 8.3001296 3.01519857 6.2250972 5.03785526 6.7149459 7.89389234"></polygon>
                <polygon id="Star-2-Copy-4" points="53.6046103 6.54545455 51.0397292 7.89389234 51.5295779 5.03785526 49.4545455 3.01519857 52.3221697 2.59850838 53.6046103 0 54.8870508 2.59850838 57.7546751 3.01519857 55.6796427 5.03785526 56.1694914 7.89389234"></polygon>
                <polygon id="Star-2-Copy-10" points="41.1500648 6.54545455 38.5851837 7.89389234 39.0750324 5.03785526 37 3.01519857 39.8676242 2.59850838 41.1500648 0 42.4325053 2.59850838 45.3001296 3.01519857 43.2250972 5.03785526 43.7149459 7.89389234"></polygon>
                <polygon id="Star-2-Copy-11" points="29.1500648 6.54545455 26.5851837 7.89389234 27.0750324 5.03785526 25 3.01519857 27.8676242 2.59850838 29.1500648 0 30.4325053 2.59850838 33.3001296 3.01519857 31.2250972 5.03785526 31.7149459 7.89389234"></polygon>
                <polygon id="Star-2-Copy-12" points="16.5137012 6.54545455 13.9488201 7.89389234 14.4386688 5.03785526 12.3636364 3.01519857 15.2312606 2.59850838 16.5137012 0 17.7961417 2.59850838 20.663766 3.01519857 18.5887336 5.03785526 19.0785823 7.89389234"></polygon>
            </g>
        </g>
    </g>
</svg>